<?xml version="1.0" standalone="no"?>
<svg xmlns="http://www.w3.org/2000/svg" width="1024" height="1024"><defs><clipPath id="clip-path-dot-color"><path d="M 66 309v 27h 13.5a 13.5 13.5, 0, 0, 0, 0 -27" transform="rotate(180,79.5,322.5)"/><circle cx="79.5" cy="484.5" r="13.5" transform="rotate(0,79.5,484.5)"/><path d="M 66 552v 27h 13.5a 13.5 13.5, 0, 0, 0, 0 -27" transform="rotate(-90,79.5,565.5)"/><path d="M 66 579v 27h 13.5a 13.5 13.5, 0, 0, 0, 0 -27" transform="rotate(90,79.5,592.5)"/><path d="M 66 660v 27h 27v -13.5a 13.5 13.5, 0, 0, 0, -13.5 -13.5" transform="rotate(-90,79.5,673.5)"/><path d="M 66 687v 27h 27v -13.5a 13.5 13.5, 0, 0, 0, -13.5 -13.5" transform="rotate(180,79.5,700.5)"/><path d="M 93 282v 27h 27v -13.5a 13.5 13.5, 0, 0, 0, -13.5 -13.5" transform="rotate(-90,106.5,295.5)"/><rect x="93" y="309" width="27" height="27" transform="rotate(0,106.5,322.5)"/><path d="M 93 498v 27h 27v -13.5a 13.5 13.5, 0, 0, 0, -13.5 -13.5" transform="rotate(-90,106.5,511.5)"/><path d="M 93 525v 27h 13.5a 13.5 13.5, 0, 0, 0, 0 -27" transform="rotate(90,106.5,538.5)"/><path d="M 93 633v 27h 13.5a 13.5 13.5, 0, 0, 0, 0 -27" transform="rotate(-90,106.5,646.5)"/><rect x="93" y="660" width="27" height="27" transform="rotate(0,106.5,673.5)"/><rect x="93" y="687" width="27" height="27" transform="rotate(0,106.5,700.5)"/><path d="M 120 282v 27h 27v -13.5a 13.5 13.5, 0, 0, 0, -13.5 -13.5" transform="rotate(0,133.5,295.5)"/><rect x="120" y="309" width="27" height="27" transform="rotate(0,133.5,322.5)"/><path d="M 120 336v 27h 13.5a 13.5 13.5, 0, 0, 0, 0 -27" transform="rotate(90,133.5,349.5)"/><circle cx="133.5" cy="403.5" r="13.5" transform="rotate(0,133.5,403.5)"/><path d="M 120 471v 27h 13.5a 13.5 13.5, 0, 0, 0, 0 -27" transform="rotate(-90,133.5,484.5)"/><rect x="120" y="498" width="27" height="27" transform="rotate(0,133.5,511.5)"/><path d="M 120 552v 27h 13.5a 13.5 13.5, 0, 0, 0, 0 -27" transform="rotate(180,133.5,565.5)"/><path d="M 120 660v 27h 27v -13.5a 13.5 13.5, 0, 0, 0, -13.5 -13.5" transform="rotate(0,133.5,673.5)"/><rect x="120" y="687" width="27" height="27" transform="rotate(0,133.5,700.5)"/><path d="M 120 714v 27h 27v -13.5a 13.5 13.5, 0, 0, 0, -13.5 -13.5" transform="rotate(180,133.5,727.5)"/><path d="M 147 309v 27h 13.5a 13.5 13.5, 0, 0, 0, 0 -27" transform="rotate(0,160.5,322.5)"/><path d="M 147 417v 27h 27v -13.5a 13.5 13.5, 0, 0, 0, -13.5 -13.5" transform="rotate(-90,160.5,430.5)"/><path d="M 147 444v 27h 27v -13.5a 13.5 13.5, 0, 0, 0, -13.5 -13.5" transform="rotate(180,160.5,457.5)"/><rect x="147" y="498" width="27" height="27" transform="rotate(0,160.5,511.5)"/><rect x="147" y="552" width="27" height="27" transform="rotate(0,160.5,565.5)"/><path d="M 147 579v 27h 13.5a 13.5 13.5, 0, 0, 0, 0 -27" transform="rotate(90,160.5,592.5)"/><circle cx="160.5" cy="646.5" r="13.5" transform="rotate(0,160.5,646.5)"/><path d="M 147 687v 27h 27v -13.5a 13.5 13.5, 0, 0, 0, -13.5 -13.5" transform="rotate(0,160.5,700.5)"/><rect x="147" y="714" width="27" height="27" transform="rotate(0,160.5,727.5)"/><path d="M 174 336v 27h 27v -13.5a 13.5 13.5, 0, 0, 0, -13.5 -13.5" transform="rotate(-90,187.5,349.5)"/><rect x="174" y="363" width="27" height="27" transform="rotate(0,187.5,376.5)"/><rect x="174" y="390" width="27" height="27" transform="rotate(0,187.5,403.5)"/><rect x="174" y="417" width="27" height="27" transform="rotate(0,187.5,430.5)"/><rect x="174" y="444" width="27" height="27" transform="rotate(0,187.5,457.5)"/><rect x="174" y="471" width="27" height="27" transform="rotate(0,187.5,484.5)"/><rect x="174" y="498" width="27" height="27" transform="rotate(0,187.5,511.5)"/><rect x="174" y="552" width="27" height="27" transform="rotate(0,187.5,565.5)"/><rect x="174" y="714" width="27" height="27" transform="rotate(0,187.5,727.5)"/><rect x="201" y="336" width="27" height="27" transform="rotate(0,214.5,349.5)"/><rect x="201" y="363" width="27" height="27" transform="rotate(0,214.5,376.5)"/><rect x="201" y="390" width="27" height="27" transform="rotate(0,214.5,403.5)"/><rect x="201" y="444" width="27" height="27" transform="rotate(0,214.5,457.5)"/><rect x="201" y="471" width="27" height="27" transform="rotate(0,214.5,484.5)"/><rect x="201" y="498" width="27" height="27" transform="rotate(0,214.5,511.5)"/><rect x="201" y="525" width="27" height="27" transform="rotate(0,214.5,538.5)"/><rect x="201" y="552" width="27" height="27" transform="rotate(0,214.5,565.5)"/><path d="M 201 633v 27h 13.5a 13.5 13.5, 0, 0, 0, 0 -27" transform="rotate(-90,214.5,646.5)"/><path d="M 201 660v 27h 27v -13.5a 13.5 13.5, 0, 0, 0, -13.5 -13.5" transform="rotate(180,214.5,673.5)"/><rect x="201" y="714" width="27" height="27" transform="rotate(0,214.5,727.5)"/><circle cx="241.5" cy="295.5" r="13.5" transform="rotate(0,241.5,295.5)"/><path d="M 228 336v 27h 13.5a 13.5 13.5, 0, 0, 0, 0 -27" transform="rotate(0,241.5,349.5)"/><rect x="228" y="390" width="27" height="27" transform="rotate(0,241.5,403.5)"/><path d="M 228 444v 27h 13.5a 13.5 13.5, 0, 0, 0, 0 -27" transform="rotate(0,241.5,457.5)"/><path d="M 228 498v 27h 13.5a 13.5 13.5, 0, 0, 0, 0 -27" transform="rotate(0,241.5,511.5)"/><path d="M 228 552v 27h 13.5a 13.5 13.5, 0, 0, 0, 0 -27" transform="rotate(0,241.5,565.5)"/><circle cx="241.5" cy="619.5" r="13.5" transform="rotate(0,241.5,619.5)"/><rect x="228" y="660" width="27" height="27" transform="rotate(0,241.5,673.5)"/><rect x="228" y="714" width="27" height="27" transform="rotate(0,241.5,727.5)"/><rect x="255" y="390" width="27" height="27" transform="rotate(0,268.5,403.5)"/><path d="M 255 525v 27h 13.5a 13.5 13.5, 0, 0, 0, 0 -27" transform="rotate(180,268.5,538.5)"/><circle cx="268.5" cy="592.5" r="13.5" transform="rotate(0,268.5,592.5)"/><path d="M 255 660v 27h 13.5a 13.5 13.5, 0, 0, 0, 0 -27" transform="rotate(0,268.5,673.5)"/><path d="M 255 714v 27h 13.5a 13.5 13.5, 0, 0, 0, 0 -27" transform="rotate(0,268.5,727.5)"/><path d="M 282 93v 27h 13.5a 13.5 13.5, 0, 0, 0, 0 -27" transform="rotate(-90,295.5,106.5)"/><rect x="282" y="120" width="27" height="27" transform="rotate(0,295.5,133.5)"/><path d="M 282 147v 27h 27v -13.5a 13.5 13.5, 0, 0, 0, -13.5 -13.5" transform="rotate(180,295.5,160.5)"/><path d="M 282 201v 27h 13.5a 13.5 13.5, 0, 0, 0, 0 -27" transform="rotate(-90,295.5,214.5)"/><path d="M 282 228v 27h 13.5a 13.5 13.5, 0, 0, 0, 0 -27" transform="rotate(90,295.5,241.5)"/><circle cx="295.5" cy="322.5" r="13.5" transform="rotate(0,295.5,322.5)"/><path d="M 282 363v 27h 13.5a 13.5 13.5, 0, 0, 0, 0 -27" transform="rotate(-90,295.5,376.5)"/><path d="M 282 390v 27h 27v -13.5a 13.5 13.5, 0, 0, 0, -13.5 -13.5" transform="rotate(90,295.5,403.5)"/><path d="M 282 444v 27h 13.5a 13.5 13.5, 0, 0, 0, 0 -27" transform="rotate(-90,295.5,457.5)"/><rect x="282" y="471" width="27" height="27" transform="rotate(0,295.5,484.5)"/><rect x="282" y="498" width="27" height="27" transform="rotate(0,295.5,511.5)"/><rect x="282" y="525" width="27" height="27" transform="rotate(0,295.5,538.5)"/><path d="M 282 552v 27h 27v -13.5a 13.5 13.5, 0, 0, 0, -13.5 -13.5" transform="rotate(180,295.5,565.5)"/><circle cx="295.5" cy="646.5" r="13.5" transform="rotate(0,295.5,646.5)"/><path d="M 282 687v 27h 13.5a 13.5 13.5, 0, 0, 0, 0 -27" transform="rotate(180,295.5,700.5)"/><path d="M 282 876v 27h 27v -13.5a 13.5 13.5, 0, 0, 0, -13.5 -13.5" transform="rotate(-90,295.5,889.5)"/><path d="M 282 903v 27h 13.5a 13.5 13.5, 0, 0, 0, 0 -27" transform="rotate(90,295.5,916.5)"/><path d="M 309 66v 27h 13.5a 13.5 13.5, 0, 0, 0, 0 -27" transform="rotate(180,322.5,79.5)"/><rect x="309" y="120" width="27" height="27" transform="rotate(0,322.5,133.5)"/><rect x="309" y="147" width="27" height="27" transform="rotate(0,322.5,160.5)"/><circle cx="322.5" cy="268.5" r="13.5" transform="rotate(0,322.5,268.5)"/><path d="M 309 336v 27h 13.5a 13.5 13.5, 0, 0, 0, 0 -27" transform="rotate(180,322.5,349.5)"/><path d="M 309 417v 27h 13.5a 13.5 13.5, 0, 0, 0, 0 -27" transform="rotate(180,322.5,430.5)"/><rect x="309" y="498" width="27" height="27" transform="rotate(0,322.5,511.5)"/><rect x="309" y="525" width="27" height="27" transform="rotate(0,322.5,538.5)"/><rect x="309" y="552" width="27" height="27" transform="rotate(0,322.5,565.5)"/><rect x="309" y="579" width="27" height="27" transform="rotate(0,322.5,592.5)"/><path d="M 309 606v 27h 13.5a 13.5 13.5, 0, 0, 0, 0 -27" transform="rotate(90,322.5,619.5)"/><path d="M 309 660v 27h 27v -13.5a 13.5 13.5, 0, 0, 0, -13.5 -13.5" transform="rotate(-90,322.5,673.5)"/><rect x="309" y="687" width="27" height="27" transform="rotate(0,322.5,700.5)"/><path d="M 309 714v 27h 13.5a 13.5 13.5, 0, 0, 0, 0 -27" transform="rotate(90,322.5,727.5)"/><path d="M 309 768v 27h 27v -13.5a 13.5 13.5, 0, 0, 0, -13.5 -13.5" transform="rotate(-90,322.5,781.5)"/><path d="M 309 795v 27h 27v -13.5a 13.5 13.5, 0, 0, 0, -13.5 -13.5" transform="rotate(180,322.5,808.5)"/><path d="M 309 849v 27h 27v -13.5a 13.5 13.5, 0, 0, 0, -13.5 -13.5" transform="rotate(-90,322.5,862.5)"/><path d="M 309 876v 27h 27v -13.5a 13.5 13.5, 0, 0, 0, -13.5 -13.5" transform="rotate(90,322.5,889.5)"/><path d="M 309 930v 27h 13.5a 13.5 13.5, 0, 0, 0, 0 -27" transform="rotate(180,322.5,943.5)"/><path d="M 336 66v 27h 13.5a 13.5 13.5, 0, 0, 0, 0 -27" transform="rotate(0,349.5,79.5)"/><path d="M 336 120v 27h 27v -13.5a 13.5 13.5, 0, 0, 0, -13.5 -13.5" transform="rotate(0,349.5,133.5)"/><rect x="336" y="147" width="27" height="27" transform="rotate(0,349.5,160.5)"/><circle cx="349.5" cy="241.5" r="13.5" transform="rotate(0,349.5,241.5)"/><path d="M 336 282v 27h 27v -13.5a 13.5 13.5, 0, 0, 0, -13.5 -13.5" transform="rotate(-90,349.5,295.5)"/><rect x="336" y="309" width="27" height="27" transform="rotate(0,349.5,322.5)"/><rect x="336" y="336" width="27" height="27" transform="rotate(0,349.5,349.5)"/><path d="M 336 363v 27h 13.5a 13.5 13.5, 0, 0, 0, 0 -27" transform="rotate(90,349.5,376.5)"/><rect x="336" y="417" width="27" height="27" transform="rotate(0,349.5,430.5)"/><rect x="336" y="444" width="27" height="27" transform="rotate(0,349.5,457.5)"/><rect x="336" y="471" width="27" height="27" transform="rotate(0,349.5,484.5)"/><rect x="336" y="498" width="27" height="27" transform="rotate(0,349.5,511.5)"/><path d="M 336 552v 27h 13.5a 13.5 13.5, 0, 0, 0, 0 -27" transform="rotate(0,349.5,565.5)"/><path d="M 336 633v 27h 27v -13.5a 13.5 13.5, 0, 0, 0, -13.5 -13.5" transform="rotate(-90,349.5,646.5)"/><rect x="336" y="660" width="27" height="27" transform="rotate(0,349.5,673.5)"/><rect x="336" y="687" width="27" height="27" transform="rotate(0,349.5,700.5)"/><rect x="336" y="768" width="27" height="27" transform="rotate(0,349.5,781.5)"/><rect x="336" y="795" width="27" height="27" transform="rotate(0,349.5,808.5)"/><rect x="336" y="822" width="27" height="27" transform="rotate(0,349.5,835.5)"/><rect x="336" y="849" width="27" height="27" transform="rotate(0,349.5,862.5)"/><path d="M 336 930v 27h 13.5a 13.5 13.5, 0, 0, 0, 0 -27" transform="rotate(0,349.5,943.5)"/><rect x="363" y="147" width="27" height="27" transform="rotate(0,376.5,160.5)"/><circle cx="376.5" cy="214.5" r="13.5" transform="rotate(0,376.5,214.5)"/><path d="M 363 255v 27h 27v -13.5a 13.5 13.5, 0, 0, 0, -13.5 -13.5" transform="rotate(-90,376.5,268.5)"/><path d="M 363 282v 27h 27v -13.5a 13.5 13.5, 0, 0, 0, -13.5 -13.5" transform="rotate(90,376.5,295.5)"/><rect x="363" y="336" width="27" height="27" transform="rotate(0,376.5,349.5)"/><path d="M 363 417v 27h 13.5a 13.5 13.5, 0, 0, 0, 0 -27" transform="rotate(0,376.5,430.5)"/><path d="M 363 471v 27h 27v -13.5a 13.5 13.5, 0, 0, 0, -13.5 -13.5" transform="rotate(0,376.5,484.5)"/><rect x="363" y="498" width="27" height="27" transform="rotate(0,376.5,511.5)"/><path d="M 363 525v 27h 13.5a 13.5 13.5, 0, 0, 0, 0 -27" transform="rotate(90,376.5,538.5)"/><rect x="363" y="633" width="27" height="27" transform="rotate(0,376.5,646.5)"/><rect x="363" y="660" width="27" height="27" transform="rotate(0,376.5,673.5)"/><rect x="363" y="687" width="27" height="27" transform="rotate(0,376.5,700.5)"/><path d="M 363 714v 27h 27v -13.5a 13.5 13.5, 0, 0, 0, -13.5 -13.5" transform="rotate(180,376.5,727.5)"/><path d="M 363 768v 27h 27v -13.5a 13.5 13.5, 0, 0, 0, -13.5 -13.5" transform="rotate(0,376.5,781.5)"/><path d="M 363 795v 27h 27v -13.5a 13.5 13.5, 0, 0, 0, -13.5 -13.5" transform="rotate(90,376.5,808.5)"/><rect x="363" y="849" width="27" height="27" transform="rotate(0,376.5,862.5)"/><path d="M 390 147v 27h 13.5a 13.5 13.5, 0, 0, 0, 0 -27" transform="rotate(0,403.5,160.5)"/><path d="M 390 228v 27h 13.5a 13.5 13.5, 0, 0, 0, 0 -27" transform="rotate(-90,403.5,241.5)"/><rect x="390" y="255" width="27" height="27" transform="rotate(0,403.5,268.5)"/><path d="M 390 309v 27h 13.5a 13.5 13.5, 0, 0, 0, 0 -27" transform="rotate(-90,403.5,322.5)"/><path d="M 390 336v 27h 27v -13.5a 13.5 13.5, 0, 0, 0, -13.5 -13.5" transform="rotate(90,403.5,349.5)"/><circle cx="403.5" cy="403.5" r="13.5" transform="rotate(0,403.5,403.5)"/><path d="M 390 606v 27h 27v -13.5a 13.5 13.5, 0, 0, 0, -13.5 -13.5" transform="rotate(-90,403.5,619.5)"/><rect x="390" y="633" width="27" height="27" transform="rotate(0,403.5,646.5)"/><rect x="390" y="660" width="27" height="27" transform="rotate(0,403.5,673.5)"/><rect x="390" y="687" width="27" height="27" transform="rotate(0,403.5,700.5)"/><rect x="390" y="714" width="27" height="27" transform="rotate(0,403.5,727.5)"/><path d="M 390 741v 27h 13.5a 13.5 13.5, 0, 0, 0, 0 -27" transform="rotate(90,403.5,754.5)"/><path d="M 390 822v 27h 13.5a 13.5 13.5, 0, 0, 0, 0 -27" transform="rotate(-90,403.5,835.5)"/><path d="M 390 849v 27h 27v -13.5a 13.5 13.5, 0, 0, 0, -13.5 -13.5" transform="rotate(90,403.5,862.5)"/><path d="M 390 903v 27h 27v -13.5a 13.5 13.5, 0, 0, 0, -13.5 -13.5" transform="rotate(-90,403.5,916.5)"/><path d="M 390 930v 27h 13.5a 13.5 13.5, 0, 0, 0, 0 -27" transform="rotate(90,403.5,943.5)"/><path d="M 417 93v 27h 13.5a 13.5 13.5, 0, 0, 0, 0 -27" transform="rotate(180,430.5,106.5)"/><path d="M 417 255v 27h 27v -13.5a 13.5 13.5, 0, 0, 0, -13.5 -13.5" transform="rotate(0,430.5,268.5)"/><path d="M 417 282v 27h 27v -13.5a 13.5 13.5, 0, 0, 0, -13.5 -13.5" transform="rotate(180,430.5,295.5)"/><path d="M 417 471v 27h 13.5a 13.5 13.5, 0, 0, 0, 0 -27" transform="rotate(-90,430.5,484.5)"/><rect x="417" y="498" width="27" height="27" transform="rotate(0,430.5,511.5)"/><path d="M 417 525v 27h 13.5a 13.5 13.5, 0, 0, 0, 0 -27" transform="rotate(90,430.5,538.5)"/><rect x="417" y="606" width="27" height="27" transform="rotate(0,430.5,619.5)"/><path d="M 417 714v 27h 13.5a 13.5 13.5, 0, 0, 0, 0 -27" transform="rotate(0,430.5,727.5)"/><path d="M 417 795v 27h 13.5a 13.5 13.5, 0, 0, 0, 0 -27" transform="rotate(180,430.5,808.5)"/><path d="M 417 876v 27h 27v -13.5a 13.5 13.5, 0, 0, 0, -13.5 -13.5" transform="rotate(-90,430.5,889.5)"/><path d="M 417 903v 27h 27v -13.5a 13.5 13.5, 0, 0, 0, -13.5 -13.5" transform="rotate(90,430.5,916.5)"/><rect x="444" y="93" width="27" height="27" transform="rotate(0,457.5,106.5)"/><path d="M 444 147v 27h 13.5a 13.5 13.5, 0, 0, 0, 0 -27" transform="rotate(-90,457.5,160.5)"/><path d="M 444 174v 27h 13.5a 13.5 13.5, 0, 0, 0, 0 -27" transform="rotate(90,457.5,187.5)"/><circle cx="457.5" cy="241.5" r="13.5" transform="rotate(0,457.5,241.5)"/><rect x="444" y="282" width="27" height="27" transform="rotate(0,457.5,295.5)"/><path d="M 444 309v 27h 27v -13.5a 13.5 13.5, 0, 0, 0, -13.5 -13.5" transform="rotate(180,457.5,322.5)"/><path d="M 444 390v 27h 27v -13.5a 13.5 13.5, 0, 0, 0, -13.5 -13.5" transform="rotate(-90,457.5,403.5)"/><rect x="444" y="417" width="27" height="27" transform="rotate(0,457.5,430.5)"/><path d="M 444 444v 27h 27v -13.5a 13.5 13.5, 0, 0, 0, -13.5 -13.5" transform="rotate(180,457.5,457.5)"/><path d="M 444 579v 27h 13.5a 13.5 13.5, 0, 0, 0, 0 -27" transform="rotate(-90,457.5,592.5)"/><path d="M 444 606v 27h 27v -13.5a 13.5 13.5, 0, 0, 0, -13.5 -13.5" transform="rotate(90,457.5,619.5)"/><path d="M 444 768v 27h 27v -13.5a 13.5 13.5, 0, 0, 0, -13.5 -13.5" transform="rotate(-90,457.5,781.5)"/><path d="M 444 795v 27h 27v -13.5a 13.5 13.5, 0, 0, 0, -13.5 -13.5" transform="rotate(90,457.5,808.5)"/><path d="M 444 849v 27h 27v -13.5a 13.5 13.5, 0, 0, 0, -13.5 -13.5" transform="rotate(-90,457.5,862.5)"/><rect x="444" y="876" width="27" height="27" transform="rotate(0,457.5,889.5)"/><path d="M 471 66v 27h 13.5a 13.5 13.5, 0, 0, 0, 0 -27" transform="rotate(-90,484.5,79.5)"/><path d="M 471 93v 27h 27v -13.5a 13.5 13.5, 0, 0, 0, -13.5 -13.5" transform="rotate(90,484.5,106.5)"/><path d="M 471 201v 27h 13.5a 13.5 13.5, 0, 0, 0, 0 -27" transform="rotate(180,484.5,214.5)"/><rect x="471" y="282" width="27" height="27" transform="rotate(0,484.5,295.5)"/><rect x="471" y="309" width="27" height="27" transform="rotate(0,484.5,322.5)"/><path d="M 471 336v 27h 27v -13.5a 13.5 13.5, 0, 0, 0, -13.5 -13.5" transform="rotate(180,484.5,349.5)"/><rect x="471" y="390" width="27" height="27" transform="rotate(0,484.5,403.5)"/><rect x="471" y="417" width="27" height="27" transform="rotate(0,484.5,430.5)"/><rect x="471" y="444" width="27" height="27" transform="rotate(0,484.5,457.5)"/><path d="M 471 471v 27h 27v -13.5a 13.5 13.5, 0, 0, 0, -13.5 -13.5" transform="rotate(180,484.5,484.5)"/><path d="M 471 633v 27h 27v -13.5a 13.5 13.5, 0, 0, 0, -13.5 -13.5" transform="rotate(-90,484.5,646.5)"/><path d="M 471 660v 27h 27v -13.5a 13.5 13.5, 0, 0, 0, -13.5 -13.5" transform="rotate(180,484.5,673.5)"/><path d="M 471 741v 27h 27v -13.5a 13.5 13.5, 0, 0, 0, -13.5 -13.5" transform="rotate(-90,484.5,754.5)"/><rect x="471" y="768" width="27" height="27" transform="rotate(0,484.5,781.5)"/><path d="M 471 822v 27h 27v -13.5a 13.5 13.5, 0, 0, 0, -13.5 -13.5" transform="rotate(-90,484.5,835.5)"/><rect x="471" y="849" width="27" height="27" transform="rotate(0,484.5,862.5)"/><rect x="471" y="876" width="27" height="27" transform="rotate(0,484.5,889.5)"/><circle cx="511.5" cy="133.5" r="13.5" transform="rotate(0,511.5,133.5)"/><path d="M 498 174v 27h 13.5a 13.5 13.5, 0, 0, 0, 0 -27" transform="rotate(-90,511.5,187.5)"/><rect x="498" y="201" width="27" height="27" transform="rotate(0,511.5,214.5)"/><rect x="498" y="228" width="27" height="27" transform="rotate(0,511.5,241.5)"/><rect x="498" y="255" width="27" height="27" transform="rotate(0,511.5,268.5)"/><path d="M 498 282v 27h 27v -13.5a 13.5 13.5, 0, 0, 0, -13.5 -13.5" transform="rotate(90,511.5,295.5)"/><rect x="498" y="336" width="27" height="27" transform="rotate(0,511.5,349.5)"/><rect x="498" y="390" width="27" height="27" transform="rotate(0,511.5,403.5)"/><rect x="498" y="444" width="27" height="27" transform="rotate(0,511.5,457.5)"/><rect x="498" y="471" width="27" height="27" transform="rotate(0,511.5,484.5)"/><rect x="498" y="498" width="27" height="27" transform="rotate(0,511.5,511.5)"/><path d="M 498 525v 27h 27v -13.5a 13.5 13.5, 0, 0, 0, -13.5 -13.5" transform="rotate(180,511.5,538.5)"/><path d="M 498 606v 27h 27v -13.5a 13.5 13.5, 0, 0, 0, -13.5 -13.5" transform="rotate(-90,511.5,619.5)"/><rect x="498" y="633" width="27" height="27" transform="rotate(0,511.5,646.5)"/><rect x="498" y="660" width="27" height="27" transform="rotate(0,511.5,673.5)"/><path d="M 498 687v 27h 27v -13.5a 13.5 13.5, 0, 0, 0, -13.5 -13.5" transform="rotate(180,511.5,700.5)"/><rect x="498" y="741" width="27" height="27" transform="rotate(0,511.5,754.5)"/><rect x="498" y="768" width="27" height="27" transform="rotate(0,511.5,781.5)"/><rect x="498" y="822" width="27" height="27" transform="rotate(0,511.5,835.5)"/><path d="M 498 876v 27h 13.5a 13.5 13.5, 0, 0, 0, 0 -27" transform="rotate(0,511.5,889.5)"/><path d="M 525 201v 27h 13.5a 13.5 13.5, 0, 0, 0, 0 -27" transform="rotate(0,538.5,214.5)"/><rect x="525" y="336" width="27" height="27" transform="rotate(0,538.5,349.5)"/><rect x="525" y="363" width="27" height="27" transform="rotate(0,538.5,376.5)"/><rect x="525" y="390" width="27" height="27" transform="rotate(0,538.5,403.5)"/><path d="M 525 444v 27h 13.5a 13.5 13.5, 0, 0, 0, 0 -27" transform="rotate(0,538.5,457.5)"/><path d="M 525 498v 27h 27v -13.5a 13.5 13.5, 0, 0, 0, -13.5 -13.5" transform="rotate(0,538.5,511.5)"/><rect x="525" y="525" width="27" height="27" transform="rotate(0,538.5,538.5)"/><rect x="525" y="606" width="27" height="27" transform="rotate(0,538.5,619.5)"/><path d="M 525 660v 27h 27v -13.5a 13.5 13.5, 0, 0, 0, -13.5 -13.5" transform="rotate(0,538.5,673.5)"/><rect x="525" y="687" width="27" height="27" transform="rotate(0,538.5,700.5)"/><rect x="525" y="714" width="27" height="27" transform="rotate(0,538.5,727.5)"/><rect x="525" y="741" width="27" height="27" transform="rotate(0,538.5,754.5)"/><path d="M 525 768v 27h 27v -13.5a 13.5 13.5, 0, 0, 0, -13.5 -13.5" transform="rotate(90,538.5,781.5)"/><rect x="525" y="822" width="27" height="27" transform="rotate(0,538.5,835.5)"/><path d="M 525 849v 27h 13.5a 13.5 13.5, 0, 0, 0, 0 -27" transform="rotate(90,538.5,862.5)"/><path d="M 525 903v 27h 27v -13.5a 13.5 13.5, 0, 0, 0, -13.5 -13.5" transform="rotate(-90,538.5,916.5)"/><path d="M 525 930v 27h 13.5a 13.5 13.5, 0, 0, 0, 0 -27" transform="rotate(90,538.5,943.5)"/><circle cx="565.5" cy="79.5" r="13.5" transform="rotate(0,565.5,79.5)"/><path d="M 552 147v 27h 27v -13.5a 13.5 13.5, 0, 0, 0, -13.5 -13.5" transform="rotate(-90,565.5,160.5)"/><path d="M 552 174v 27h 13.5a 13.5 13.5, 0, 0, 0, 0 -27" transform="rotate(90,565.5,187.5)"/><path d="M 552 228v 27h 13.5a 13.5 13.5, 0, 0, 0, 0 -27" transform="rotate(-90,565.5,241.5)"/><rect x="552" y="255" width="27" height="27" transform="rotate(0,565.5,268.5)"/><path d="M 552 282v 27h 13.5a 13.5 13.5, 0, 0, 0, 0 -27" transform="rotate(90,565.5,295.5)"/><rect x="552" y="336" width="27" height="27" transform="rotate(0,565.5,349.5)"/><rect x="552" y="363" width="27" height="27" transform="rotate(0,565.5,376.5)"/><rect x="552" y="390" width="27" height="27" transform="rotate(0,565.5,403.5)"/><path d="M 552 525v 27h 13.5a 13.5 13.5, 0, 0, 0, 0 -27" transform="rotate(0,565.5,538.5)"/><rect x="552" y="606" width="27" height="27" transform="rotate(0,565.5,619.5)"/><path d="M 552 633v 27h 13.5a 13.5 13.5, 0, 0, 0, 0 -27" transform="rotate(90,565.5,646.5)"/><rect x="552" y="741" width="27" height="27" transform="rotate(0,565.5,754.5)"/><path d="M 552 795v 27h 13.5a 13.5 13.5, 0, 0, 0, 0 -27" transform="rotate(-90,565.5,808.5)"/><rect x="552" y="822" width="27" height="27" transform="rotate(0,565.5,835.5)"/><path d="M 552 876v 27h 13.5a 13.5 13.5, 0, 0, 0, 0 -27" transform="rotate(-90,565.5,889.5)"/><rect x="552" y="903" width="27" height="27" transform="rotate(0,565.5,916.5)"/><path d="M 579 93v 27h 27v -13.5a 13.5 13.5, 0, 0, 0, -13.5 -13.5" transform="rotate(-90,592.5,106.5)"/><rect x="579" y="120" width="27" height="27" transform="rotate(0,592.5,133.5)"/><rect x="579" y="147" width="27" height="27" transform="rotate(0,592.5,160.5)"/><circle cx="592.5" cy="214.5" r="13.5" transform="rotate(0,592.5,214.5)"/><path d="M 579 309v 27h 13.5a 13.5 13.5, 0, 0, 0, 0 -27" transform="rotate(-90,592.5,322.5)"/><rect x="579" y="336" width="27" height="27" transform="rotate(0,592.5,349.5)"/><path d="M 579 390v 27h 27v -13.5a 13.5 13.5, 0, 0, 0, -13.5 -13.5" transform="rotate(0,592.5,403.5)"/><rect x="579" y="417" width="27" height="27" transform="rotate(0,592.5,430.5)"/><rect x="579" y="444" width="27" height="27" transform="rotate(0,592.5,457.5)"/><path d="M 579 471v 27h 13.5a 13.5 13.5, 0, 0, 0, 0 -27" transform="rotate(90,592.5,484.5)"/><path d="M 579 606v 27h 13.5a 13.5 13.5, 0, 0, 0, 0 -27" transform="rotate(0,592.5,619.5)"/><path d="M 579 660v 27h 27v -13.5a 13.5 13.5, 0, 0, 0, -13.5 -13.5" transform="rotate(-90,592.5,673.5)"/><rect x="579" y="687" width="27" height="27" transform="rotate(0,592.5,700.5)"/><rect x="579" y="714" width="27" height="27" transform="rotate(0,592.5,727.5)"/><rect x="579" y="741" width="27" height="27" transform="rotate(0,592.5,754.5)"/><path d="M 579 768v 27h 13.5a 13.5 13.5, 0, 0, 0, 0 -27" transform="rotate(90,592.5,781.5)"/><path d="M 579 822v 27h 13.5a 13.5 13.5, 0, 0, 0, 0 -27" transform="rotate(0,592.5,835.5)"/><path d="M 579 903v 27h 13.5a 13.5 13.5, 0, 0, 0, 0 -27" transform="rotate(0,592.5,916.5)"/><rect x="606" y="93" width="27" height="27" transform="rotate(0,619.5,106.5)"/><rect x="606" y="147" width="27" height="27" transform="rotate(0,619.5,160.5)"/><path d="M 606 228v 27h 13.5a 13.5 13.5, 0, 0, 0, 0 -27" transform="rotate(-90,619.5,241.5)"/><path d="M 606 255v 27h 13.5a 13.5 13.5, 0, 0, 0, 0 -27" transform="rotate(90,619.5,268.5)"/><path d="M 606 336v 27h 13.5a 13.5 13.5, 0, 0, 0, 0 -27" transform="rotate(0,619.5,349.5)"/><path d="M 606 525v 27h 13.5a 13.5 13.5, 0, 0, 0, 0 -27" transform="rotate(-90,619.5,538.5)"/><rect x="606" y="552" width="27" height="27" transform="rotate(0,619.5,565.5)"/><path d="M 606 579v 27h 13.5a 13.5 13.5, 0, 0, 0, 0 -27" transform="rotate(90,619.5,592.5)"/><rect x="606" y="660" width="27" height="27" transform="rotate(0,619.5,673.5)"/><path d="M 606 714v 27h 13.5a 13.5 13.5, 0, 0, 0, 0 -27" transform="rotate(0,619.5,727.5)"/><path d="M 606 849v 27h 13.5a 13.5 13.5, 0, 0, 0, 0 -27" transform="rotate(-90,619.5,862.5)"/><path d="M 606 876v 27h 27v -13.5a 13.5 13.5, 0, 0, 0, -13.5 -13.5" transform="rotate(180,619.5,889.5)"/><path d="M 606 930v 27h 13.5a 13.5 13.5, 0, 0, 0, 0 -27" transform="rotate(180,619.5,943.5)"/><path d="M 633 66v 27h 13.5a 13.5 13.5, 0, 0, 0, 0 -27" transform="rotate(-90,646.5,79.5)"/><path d="M 633 93v 27h 27v -13.5a 13.5 13.5, 0, 0, 0, -13.5 -13.5" transform="rotate(90,646.5,106.5)"/><path d="M 633 147v 27h 27v -13.5a 13.5 13.5, 0, 0, 0, -13.5 -13.5" transform="rotate(0,646.5,160.5)"/><rect x="633" y="174" width="27" height="27" transform="rotate(0,646.5,187.5)"/><path d="M 633 201v 27h 27v -13.5a 13.5 13.5, 0, 0, 0, -13.5 -13.5" transform="rotate(180,646.5,214.5)"/><path d="M 633 282v 27h 13.5a 13.5 13.5, 0, 0, 0, 0 -27" transform="rotate(-90,646.5,295.5)"/><path d="M 633 309v 27h 27v -13.5a 13.5 13.5, 0, 0, 0, -13.5 -13.5" transform="rotate(180,646.5,322.5)"/><path d="M 633 390v 27h 13.5a 13.5 13.5, 0, 0, 0, 0 -27" transform="rotate(-90,646.5,403.5)"/><path d="M 633 417v 27h 13.5a 13.5 13.5, 0, 0, 0, 0 -27" transform="rotate(90,646.5,430.5)"/><path d="M 633 471v 27h 13.5a 13.5 13.5, 0, 0, 0, 0 -27" transform="rotate(180,646.5,484.5)"/><path d="M 633 606v 27h 27v -13.5a 13.5 13.5, 0, 0, 0, -13.5 -13.5" transform="rotate(-90,646.5,619.5)"/><rect x="633" y="633" width="27" height="27" transform="rotate(0,646.5,646.5)"/><rect x="633" y="660" width="27" height="27" transform="rotate(0,646.5,673.5)"/><path d="M 633 687v 27h 27v -13.5a 13.5 13.5, 0, 0, 0, -13.5 -13.5" transform="rotate(180,646.5,700.5)"/><path d="M 633 768v 27h 13.5a 13.5 13.5, 0, 0, 0, 0 -27" transform="rotate(-90,646.5,781.5)"/><path d="M 633 795v 27h 13.5a 13.5 13.5, 0, 0, 0, 0 -27" transform="rotate(90,646.5,808.5)"/><path d="M 633 876v 27h 13.5a 13.5 13.5, 0, 0, 0, 0 -27" transform="rotate(0,646.5,889.5)"/><rect x="633" y="930" width="27" height="27" transform="rotate(0,646.5,943.5)"/><path d="M 660 120v 27h 13.5a 13.5 13.5, 0, 0, 0, 0 -27" transform="rotate(180,673.5,133.5)"/><path d="M 660 201v 27h 27v -13.5a 13.5 13.5, 0, 0, 0, -13.5 -13.5" transform="rotate(0,673.5,214.5)"/><rect x="660" y="228" width="27" height="27" transform="rotate(0,673.5,241.5)"/><path d="M 660 255v 27h 27v -13.5a 13.5 13.5, 0, 0, 0, -13.5 -13.5" transform="rotate(180,673.5,268.5)"/><rect x="660" y="309" width="27" height="27" transform="rotate(0,673.5,322.5)"/><path d="M 660 471v 27h 27v -13.5a 13.5 13.5, 0, 0, 0, -13.5 -13.5" transform="rotate(0,673.5,484.5)"/><rect x="660" y="498" width="27" height="27" transform="rotate(0,673.5,511.5)"/><rect x="660" y="525" width="27" height="27" transform="rotate(0,673.5,538.5)"/><rect x="660" y="552" width="27" height="27" transform="rotate(0,673.5,565.5)"/><rect x="660" y="579" width="27" height="27" transform="rotate(0,673.5,592.5)"/><rect x="660" y="606" width="27" height="27" transform="rotate(0,673.5,619.5)"/><path d="M 660 633v 27h 27v -13.5a 13.5 13.5, 0, 0, 0, -13.5 -13.5" transform="rotate(90,673.5,646.5)"/><path d="M 660 687v 27h 27v -13.5a 13.5 13.5, 0, 0, 0, -13.5 -13.5" transform="rotate(0,673.5,700.5)"/><rect x="660" y="714" width="27" height="27" transform="rotate(0,673.5,727.5)"/><path d="M 660 741v 27h 13.5a 13.5 13.5, 0, 0, 0, 0 -27" transform="rotate(90,673.5,754.5)"/><path d="M 660 822v 27h 27v -13.5a 13.5 13.5, 0, 0, 0, -13.5 -13.5" transform="rotate(-90,673.5,835.5)"/><path d="M 660 849v 27h 27v -13.5a 13.5 13.5, 0, 0, 0, -13.5 -13.5" transform="rotate(180,673.5,862.5)"/><path d="M 660 903v 27h 13.5a 13.5 13.5, 0, 0, 0, 0 -27" transform="rotate(-90,673.5,916.5)"/><path d="M 660 930v 27h 27v -13.5a 13.5 13.5, 0, 0, 0, -13.5 -13.5" transform="rotate(90,673.5,943.5)"/><path d="M 687 93v 27h 13.5a 13.5 13.5, 0, 0, 0, 0 -27" transform="rotate(-90,700.5,106.5)"/><rect x="687" y="120" width="27" height="27" transform="rotate(0,700.5,133.5)"/><path d="M 687 147v 27h 27v -13.5a 13.5 13.5, 0, 0, 0, -13.5 -13.5" transform="rotate(180,700.5,160.5)"/><rect x="687" y="255" width="27" height="27" transform="rotate(0,700.5,268.5)"/><rect x="687" y="282" width="27" height="27" transform="rotate(0,700.5,295.5)"/><rect x="687" y="309" width="27" height="27" transform="rotate(0,700.5,322.5)"/><path d="M 687 336v 27h 13.5a 13.5 13.5, 0, 0, 0, 0 -27" transform="rotate(90,700.5,349.5)"/><path d="M 687 390v 27h 13.5a 13.5 13.5, 0, 0, 0, 0 -27" transform="rotate(180,700.5,403.5)"/><rect x="687" y="525" width="27" height="27" transform="rotate(0,700.5,538.5)"/><path d="M 687 552v 27h 27v -13.5a 13.5 13.5, 0, 0, 0, -13.5 -13.5" transform="rotate(90,700.5,565.5)"/><path d="M 687 606v 27h 13.5a 13.5 13.5, 0, 0, 0, 0 -27" transform="rotate(0,700.5,619.5)"/><path d="M 687 660v 27h 13.5a 13.5 13.5, 0, 0, 0, 0 -27" transform="rotate(180,700.5,673.5)"/><rect x="687" y="714" width="27" height="27" transform="rotate(0,700.5,727.5)"/><path d="M 687 768v 27h 13.5a 13.5 13.5, 0, 0, 0, 0 -27" transform="rotate(180,700.5,781.5)"/><rect x="687" y="822" width="27" height="27" transform="rotate(0,700.5,835.5)"/><rect x="687" y="849" width="27" height="27" transform="rotate(0,700.5,862.5)"/><circle cx="727.5" cy="79.5" r="13.5" transform="rotate(0,727.5,79.5)"/><path d="M 714 147v 27h 13.5a 13.5 13.5, 0, 0, 0, 0 -27" transform="rotate(0,727.5,160.5)"/><path d="M 714 228v 27h 13.5a 13.5 13.5, 0, 0, 0, 0 -27" transform="rotate(-90,727.5,241.5)"/><rect x="714" y="255" width="27" height="27" transform="rotate(0,727.5,268.5)"/><rect x="714" y="282" width="27" height="27" transform="rotate(0,727.5,295.5)"/><path d="M 714 309v 27h 27v -13.5a 13.5 13.5, 0, 0, 0, -13.5 -13.5" transform="rotate(90,727.5,322.5)"/><path d="M 714 390v 27h 13.5a 13.5 13.5, 0, 0, 0, 0 -27" transform="rotate(0,727.5,403.5)"/><path d="M 714 471v 27h 13.5a 13.5 13.5, 0, 0, 0, 0 -27" transform="rotate(180,727.5,484.5)"/><rect x="714" y="525" width="27" height="27" transform="rotate(0,727.5,538.5)"/><path d="M 714 579v 27h 13.5a 13.5 13.5, 0, 0, 0, 0 -27" transform="rotate(180,727.5,592.5)"/><rect x="714" y="660" width="27" height="27" transform="rotate(0,727.5,673.5)"/><rect x="714" y="714" width="27" height="27" transform="rotate(0,727.5,727.5)"/><rect x="714" y="741" width="27" height="27" transform="rotate(0,727.5,754.5)"/><rect x="714" y="768" width="27" height="27" transform="rotate(0,727.5,781.5)"/><rect x="714" y="795" width="27" height="27" transform="rotate(0,727.5,808.5)"/><rect x="714" y="822" width="27" height="27" transform="rotate(0,727.5,835.5)"/><rect x="714" y="849" width="27" height="27" transform="rotate(0,727.5,862.5)"/><circle cx="727.5" cy="916.5" r="13.5" transform="rotate(0,727.5,916.5)"/><path d="M 741 282v 27h 13.5a 13.5 13.5, 0, 0, 0, 0 -27" transform="rotate(0,754.5,295.5)"/><path d="M 741 336v 27h 13.5a 13.5 13.5, 0, 0, 0, 0 -27" transform="rotate(180,754.5,349.5)"/><path d="M 741 417v 27h 13.5a 13.5 13.5, 0, 0, 0, 0 -27" transform="rotate(-90,754.5,430.5)"/><rect x="741" y="444" width="27" height="27" transform="rotate(0,754.5,457.5)"/><rect x="741" y="471" width="27" height="27" transform="rotate(0,754.5,484.5)"/><rect x="741" y="498" width="27" height="27" transform="rotate(0,754.5,511.5)"/><rect x="741" y="525" width="27" height="27" transform="rotate(0,754.5,538.5)"/><rect x="741" y="579" width="27" height="27" transform="rotate(0,754.5,592.5)"/><path d="M 741 633v 27h 27v -13.5a 13.5 13.5, 0, 0, 0, -13.5 -13.5" transform="rotate(-90,754.5,646.5)"/><rect x="741" y="660" width="27" height="27" transform="rotate(0,754.5,673.5)"/><rect x="741" y="687" width="27" height="27" transform="rotate(0,754.5,700.5)"/><rect x="741" y="714" width="27" height="27" transform="rotate(0,754.5,727.5)"/><rect x="741" y="822" width="27" height="27" transform="rotate(0,754.5,835.5)"/><path d="M 741 849v 27h 27v -13.5a 13.5 13.5, 0, 0, 0, -13.5 -13.5" transform="rotate(90,754.5,862.5)"/><path d="M 768 309v 27h 27v -13.5a 13.5 13.5, 0, 0, 0, -13.5 -13.5" transform="rotate(-90,781.5,322.5)"/><rect x="768" y="336" width="27" height="27" transform="rotate(0,781.5,349.5)"/><circle cx="781.5" cy="403.5" r="13.5" transform="rotate(0,781.5,403.5)"/><path d="M 768 471v 27h 13.5a 13.5 13.5, 0, 0, 0, 0 -27" transform="rotate(0,781.5,484.5)"/><path d="M 768 525v 27h 13.5a 13.5 13.5, 0, 0, 0, 0 -27" transform="rotate(0,781.5,538.5)"/><path d="M 768 579v 27h 13.5a 13.5 13.5, 0, 0, 0, 0 -27" transform="rotate(0,781.5,592.5)"/><path d="M 768 633v 27h 13.5a 13.5 13.5, 0, 0, 0, 0 -27" transform="rotate(0,781.5,646.5)"/><rect x="768" y="687" width="27" height="27" transform="rotate(0,781.5,700.5)"/><rect x="768" y="714" width="27" height="27" transform="rotate(0,781.5,727.5)"/><circle cx="781.5" cy="781.5" r="13.5" transform="rotate(0,781.5,781.5)"/><rect x="768" y="822" width="27" height="27" transform="rotate(0,781.5,835.5)"/><path d="M 795 282v 27h 13.5a 13.5 13.5, 0, 0, 0, 0 -27" transform="rotate(-90,808.5,295.5)"/><rect x="795" y="309" width="27" height="27" transform="rotate(0,808.5,322.5)"/><path d="M 795 336v 27h 27v -13.5a 13.5 13.5, 0, 0, 0, -13.5 -13.5" transform="rotate(90,808.5,349.5)"/><path d="M 795 417v 27h 27v -13.5a 13.5 13.5, 0, 0, 0, -13.5 -13.5" transform="rotate(-90,808.5,430.5)"/><path d="M 795 444v 27h 27v -13.5a 13.5 13.5, 0, 0, 0, -13.5 -13.5" transform="rotate(180,808.5,457.5)"/><path d="M 795 552v 27h 13.5a 13.5 13.5, 0, 0, 0, 0 -27" transform="rotate(180,808.5,565.5)"/><circle cx="808.5" cy="619.5" r="13.5" transform="rotate(0,808.5,619.5)"/><rect x="795" y="687" width="27" height="27" transform="rotate(0,808.5,700.5)"/><rect x="795" y="714" width="27" height="27" transform="rotate(0,808.5,727.5)"/><rect x="795" y="822" width="27" height="27" transform="rotate(0,808.5,835.5)"/><rect x="795" y="849" width="27" height="27" transform="rotate(0,808.5,862.5)"/><rect x="795" y="876" width="27" height="27" transform="rotate(0,808.5,889.5)"/><rect x="795" y="903" width="27" height="27" transform="rotate(0,808.5,916.5)"/><path d="M 795 930v 27h 27v -13.5a 13.5 13.5, 0, 0, 0, -13.5 -13.5" transform="rotate(180,808.5,943.5)"/><path d="M 822 309v 27h 13.5a 13.5 13.5, 0, 0, 0, 0 -27" transform="rotate(0,835.5,322.5)"/><path d="M 822 417v 27h 27v -13.5a 13.5 13.5, 0, 0, 0, -13.5 -13.5" transform="rotate(0,835.5,430.5)"/><rect x="822" y="444" width="27" height="27" transform="rotate(0,835.5,457.5)"/><rect x="822" y="471" width="27" height="27" transform="rotate(0,835.5,484.5)"/><path d="M 822 498v 27h 27v -13.5a 13.5 13.5, 0, 0, 0, -13.5 -13.5" transform="rotate(180,835.5,511.5)"/><path d="M 822 552v 27h 13.5a 13.5 13.5, 0, 0, 0, 0 -27" transform="rotate(0,835.5,565.5)"/><path d="M 822 660v 27h 27v -13.5a 13.5 13.5, 0, 0, 0, -13.5 -13.5" transform="rotate(-90,835.5,673.5)"/><rect x="822" y="687" width="27" height="27" transform="rotate(0,835.5,700.5)"/><rect x="822" y="714" width="27" height="27" transform="rotate(0,835.5,727.5)"/><rect x="822" y="741" width="27" height="27" transform="rotate(0,835.5,754.5)"/><rect x="822" y="768" width="27" height="27" transform="rotate(0,835.5,781.5)"/><rect x="822" y="795" width="27" height="27" transform="rotate(0,835.5,808.5)"/><path d="M 822 822v 27h 27v -13.5a 13.5 13.5, 0, 0, 0, -13.5 -13.5" transform="rotate(90,835.5,835.5)"/><path d="M 822 876v 27h 13.5a 13.5 13.5, 0, 0, 0, 0 -27" transform="rotate(0,835.5,889.5)"/><rect x="822" y="930" width="27" height="27" transform="rotate(0,835.5,943.5)"/><path d="M 849 282v 27h 13.5a 13.5 13.5, 0, 0, 0, 0 -27" transform="rotate(180,862.5,295.5)"/><path d="M 849 336v 27h 27v -13.5a 13.5 13.5, 0, 0, 0, -13.5 -13.5" transform="rotate(-90,862.5,349.5)"/><rect x="849" y="363" width="27" height="27" transform="rotate(0,862.5,376.5)"/><path d="M 849 390v 27h 27v -13.5a 13.5 13.5, 0, 0, 0, -13.5 -13.5" transform="rotate(180,862.5,403.5)"/><path d="M 849 498v 27h 13.5a 13.5 13.5, 0, 0, 0, 0 -27" transform="rotate(0,862.5,511.5)"/><circle cx="862.5" cy="592.5" r="13.5" transform="rotate(0,862.5,592.5)"/><path d="M 849 660v 27h 13.5a 13.5 13.5, 0, 0, 0, 0 -27" transform="rotate(0,862.5,673.5)"/><rect x="849" y="795" width="27" height="27" transform="rotate(0,862.5,808.5)"/><path d="M 849 849v 27h 13.5a 13.5 13.5, 0, 0, 0, 0 -27" transform="rotate(180,862.5,862.5)"/><path d="M 849 903v 27h 13.5a 13.5 13.5, 0, 0, 0, 0 -27" transform="rotate(-90,862.5,916.5)"/><path d="M 849 930v 27h 27v -13.5a 13.5 13.5, 0, 0, 0, -13.5 -13.5" transform="rotate(90,862.5,943.5)"/><rect x="876" y="282" width="27" height="27" transform="rotate(0,889.5,295.5)"/><rect x="876" y="336" width="27" height="27" transform="rotate(0,889.5,349.5)"/><rect x="876" y="363" width="27" height="27" transform="rotate(0,889.5,376.5)"/><path d="M 876 390v 27h 27v -13.5a 13.5 13.5, 0, 0, 0, -13.5 -13.5" transform="rotate(90,889.5,403.5)"/><path d="M 876 444v 27h 13.5a 13.5 13.5, 0, 0, 0, 0 -27" transform="rotate(180,889.5,457.5)"/><path d="M 876 606v 27h 13.5a 13.5 13.5, 0, 0, 0, 0 -27" transform="rotate(180,889.5,619.5)"/><path d="M 876 714v 27h 27v -13.5a 13.5 13.5, 0, 0, 0, -13.5 -13.5" transform="rotate(-90,889.5,727.5)"/><rect x="876" y="741" width="27" height="27" transform="rotate(0,889.5,754.5)"/><rect x="876" y="768" width="27" height="27" transform="rotate(0,889.5,781.5)"/><rect x="876" y="795" width="27" height="27" transform="rotate(0,889.5,808.5)"/><path d="M 876 849v 27h 27v -13.5a 13.5 13.5, 0, 0, 0, -13.5 -13.5" transform="rotate(0,889.5,862.5)"/><path d="M 876 876v 27h 13.5a 13.5 13.5, 0, 0, 0, 0 -27" transform="rotate(90,889.5,889.5)"/><path d="M 903 282v 27h 27v -13.5a 13.5 13.5, 0, 0, 0, -13.5 -13.5" transform="rotate(0,916.5,295.5)"/><rect x="903" y="309" width="27" height="27" transform="rotate(0,916.5,322.5)"/><rect x="903" y="336" width="27" height="27" transform="rotate(0,916.5,349.5)"/><path d="M 903 417v 27h 13.5a 13.5 13.5, 0, 0, 0, 0 -27" transform="rotate(-90,916.5,430.5)"/><rect x="903" y="444" width="27" height="27" transform="rotate(0,916.5,457.5)"/><rect x="903" y="606" width="27" height="27" transform="rotate(0,916.5,619.5)"/><path d="M 903 660v 27h 13.5a 13.5 13.5, 0, 0, 0, 0 -27" transform="rotate(-90,916.5,673.5)"/><rect x="903" y="687" width="27" height="27" transform="rotate(0,916.5,700.5)"/><rect x="903" y="714" width="27" height="27" transform="rotate(0,916.5,727.5)"/><path d="M 903 741v 27h 27v -13.5a 13.5 13.5, 0, 0, 0, -13.5 -13.5" transform="rotate(90,916.5,754.5)"/><path d="M 903 795v 27h 27v -13.5a 13.5 13.5, 0, 0, 0, -13.5 -13.5" transform="rotate(0,916.5,808.5)"/><path d="M 903 822v 27h 27v -13.5a 13.5 13.5, 0, 0, 0, -13.5 -13.5" transform="rotate(180,916.5,835.5)"/><circle cx="916.5" cy="943.5" r="13.5" transform="rotate(0,916.5,943.5)"/><path d="M 930 336v 27h 13.5a 13.5 13.5, 0, 0, 0, 0 -27" transform="rotate(0,943.5,349.5)"/><circle cx="943.5" cy="403.5" r="13.5" transform="rotate(0,943.5,403.5)"/><path d="M 930 444v 27h 13.5a 13.5 13.5, 0, 0, 0, 0 -27" transform="rotate(0,943.5,457.5)"/><circle cx="943.5" cy="511.5" r="13.5" transform="rotate(0,943.5,511.5)"/><path d="M 930 579v 27h 13.5a 13.5 13.5, 0, 0, 0, 0 -27" transform="rotate(-90,943.5,592.5)"/><rect x="930" y="606" width="27" height="27" transform="rotate(0,943.5,619.5)"/><path d="M 930 633v 27h 13.5a 13.5 13.5, 0, 0, 0, 0 -27" transform="rotate(90,943.5,646.5)"/><path d="M 930 687v 27h 13.5a 13.5 13.5, 0, 0, 0, 0 -27" transform="rotate(0,943.5,700.5)"/><path d="M 930 822v 27h 13.5a 13.5 13.5, 0, 0, 0, 0 -27" transform="rotate(0,943.5,835.5)"/><circle cx="943.5" cy="889.5" r="13.5" transform="rotate(0,943.5,889.5)"/></clipPath><clipPath id="clip-path-corners-square-color-0-0"><path clip-rule="evenodd" d="M 66 133.5v 54a 67.5 67.5, 0, 0, 0, 67.5 67.5h 54a 67.5 67.5, 0, 0, 0, 67.5 -67.5v -54a 67.5 67.5, 0, 0, 0, -67.5 -67.5h -54a 67.5 67.5, 0, 0, 0, -67.5 67.5M 133.5 93h 54a 40.5 40.5, 0, 0, 1, 40.5 40.5v 54a 40.5 40.5, 0, 0, 1, -40.5 40.5h -54a 40.5 40.5, 0, 0, 1, -40.5 -40.5v -54a 40.5 40.5, 0, 0, 1, 40.5 -40.5" transform="rotate(0,160.5,160.5)"/></clipPath><clipPath id="clip-path-corners-dot-color-0-0"><circle cx="160.5" cy="160.5" r="40.5" transform="rotate(0,160.5,160.5)"/></clipPath><clipPath id="clip-path-corners-square-color-1-0"><path clip-rule="evenodd" d="M 768 133.5v 54a 67.5 67.5, 0, 0, 0, 67.5 67.5h 54a 67.5 67.5, 0, 0, 0, 67.5 -67.5v -54a 67.5 67.5, 0, 0, 0, -67.5 -67.5h -54a 67.5 67.5, 0, 0, 0, -67.5 67.5M 835.5 93h 54a 40.5 40.5, 0, 0, 1, 40.5 40.5v 54a 40.5 40.5, 0, 0, 1, -40.5 40.5h -54a 40.5 40.5, 0, 0, 1, -40.5 -40.5v -54a 40.5 40.5, 0, 0, 1, 40.5 -40.5" transform="rotate(90,862.5,160.5)"/></clipPath><clipPath id="clip-path-corners-dot-color-1-0"><circle cx="862.5" cy="160.5" r="40.5" transform="rotate(90,862.5,160.5)"/></clipPath><clipPath id="clip-path-corners-square-color-0-1"><path clip-rule="evenodd" d="M 66 835.5v 54a 67.5 67.5, 0, 0, 0, 67.5 67.5h 54a 67.5 67.5, 0, 0, 0, 67.5 -67.5v -54a 67.5 67.5, 0, 0, 0, -67.5 -67.5h -54a 67.5 67.5, 0, 0, 0, -67.5 67.5M 133.5 795h 54a 40.5 40.5, 0, 0, 1, 40.5 40.5v 54a 40.5 40.5, 0, 0, 1, -40.5 40.5h -54a 40.5 40.5, 0, 0, 1, -40.5 -40.5v -54a 40.5 40.5, 0, 0, 1, 40.5 -40.5" transform="rotate(-90,160.5,862.5)"/></clipPath><clipPath id="clip-path-corners-dot-color-0-1"><circle cx="160.5" cy="862.5" r="40.5" transform="rotate(-90,160.5,862.5)"/></clipPath></defs><rect x="0" y="0" height="1024" width="1024" clip-path="url('#clip-path-background-color')" fill="color(display-p3 .086 .09 .094)"/><rect x="0" y="0" height="1024" width="1024" clip-path="url('#clip-path-dot-color')" fill="#0563bb"/><rect x="66" y="66" height="189" width="189" clip-path="url('#clip-path-corners-square-color-0-0')" fill="#0563bb"/><rect x="120" y="120" height="81" width="81" clip-path="url('#clip-path-corners-dot-color-0-0')" fill="#0563bb"/><rect x="768" y="66" height="189" width="189" clip-path="url('#clip-path-corners-square-color-1-0')" fill="#0563bb"/><rect x="822" y="120" height="81" width="81" clip-path="url('#clip-path-corners-dot-color-1-0')" fill="#0563bb"/><rect x="66" y="768" height="189" width="189" clip-path="url('#clip-path-corners-square-color-0-1')" fill="#0563bb"/><rect x="120" y="822" height="81" width="81" clip-path="url('#clip-path-corners-dot-color-0-1')" fill="#0563bb"/></svg>